<?xml version="1.0" standalone="no"?>
<!DOCTYPE svg PUBLIC "-//W3C//DTD SVG 20010904//EN"
 "http://www.w3.org/TR/2001/REC-SVG-20010904/DTD/svg10.dtd">
<svg version="1.0" xmlns="http://www.w3.org/2000/svg"
 width="700.000000pt" height="700.000000pt" viewBox="0 0 700.000000 700.000000"
 preserveAspectRatio="xMidYMid meet">
<metadata>
Created by potrace 1.11, written by Peter Selinger 2001-2013
</metadata>
<g transform="translate(0.000000,700.000000) scale(0.100000,-0.100000)"
fill="#000000" stroke="none">
<path d="M484 6976 c-145 -53 -233 -174 -239 -330 -2 -73 14 -133 54 -197 18
-30 25 -49 18 -51 -7 -2 -81 -3 -164 -3 l-153 1 0 -241 0 -241 122 0 123 1 -2
-2409 c-1 -1542 -5 -2411 -11 -2415 -6 -3 -60 -6 -121 -5 l-111 1 0 -241 0
-242 157 1 c87 0 161 -1 165 -2 4 -2 -7 -25 -23 -52 -112 -180 -44 -418 146
-512 75 -37 169 -45 255 -23 56 15 153 73 170 103 8 14 10 13 11 -4 1 -11 1
-28 0 -37 -2 -12 5 -18 21 -19 116 -4 610 0 614 4 4 3 6 195 6 426 l0 421 269
270 270 270 1805 0 1804 0 1 -37 c2 -149 0 -314 -4 -320 -3 -5 -57 -8 -121 -7
l-116 1 0 -242 0 -241 285 0 c157 1 285 -1 285 -4 0 -3 -11 -22 -26 -43 -39
-58 -56 -116 -56 -193 0 -84 14 -129 60 -201 105 -163 329 -208 499 -100 44
28 98 91 125 147 52 105 43 241 -22 343 -16 26 -30 49 -30 50 0 1 101 2 225 1
l225 0 0 241 0 242 -111 -1 c-61 -1 -115 2 -121 5 -10 6 -15 4800 -5 4816 3 4
57 8 121 7 l116 -1 0 242 0 241 -228 0 -229 -1 28 38 c71 98 83 244 30 360
-38 84 -138 169 -226 192 -102 28 -228 4 -314 -59 -145 -106 -190 -326 -96
-468 32 -48 31 -52 -2 -34 -16 8 -59 23 -98 35 -321 97 -685 45 -950 -136 -85
-58 -74 -48 -456 -428 l-346 -345 -1573 2 -1574 3 0 168 c-1 92 1 173 4 180 4
8 39 12 120 12 l115 0 1 237 c1 168 -2 238 -10 241 -6 2 -81 3 -167 3 l-156
-1 33 51 c77 120 76 267 -2 390 -87 137 -265 196 -420 140z m664 -5582 c-55
-56 -57 -57 -117 -58 -34 -1 -61 3 -62 9 0 6 -2 31 -3 58 l-2 47 120 0 121 0
-57 -56z"/>
</g>
</svg>
